<svg id="Capa_1" data-name="Capa 1" xmlns="http://www.w3.org/2000/svg" viewBox="0 0 365.67 84.08"><defs><style>.cls-1,.cls-2{fill:#fff;}.cls-1{fill-rule:evenodd;}</style></defs><title>logo_seyf</title><path class="cls-1" d="M175.84,152.71A11.57,11.57,0,1,0,166.5,148l-8.87,7.85a11.57,11.57,0,0,0-13.53-2l-8.4-13.18a11.43,11.43,0,1,0-2.1,1.32l8.5,13.18A11.57,11.57,0,1,0,161,164a11.44,11.44,0,0,0-1.89-6.33l9-7.89a11.54,11.54,0,0,0,7.68,2.92Zm4.21-7.35a6,6,0,0,1-8.43,0h0a6,6,0,0,1,8.43-8.44h0a6,6,0,0,1,0,8.44Zm-26.36,22.87h0a6,6,0,0,1-8.44,0h0a6,6,0,0,1,0-8.44h0a6,6,0,0,1,8.44,8.43Zm-20.91-32.52a6,6,0,0,1-8.43,0h0a6,6,0,1,1,8.43,0Z" transform="translate(-117 -115)"/><path class="cls-2" d="M134.73,198.9l-1.4-2.5h-9.55l-1.41,2.5h-1.78l6.69-11.81h2.52l6.67,11.81ZM132.57,195l-3.67-6.55h-.63L124.54,195Z" transform="translate(-117 -115)"/><path class="cls-2" d="M143.39,192.91h7.74a23.93,23.93,0,0,1-.18,3.56,3,3,0,0,1-.57,1.37,2.68,2.68,0,0,1-1.19.72,20.15,20.15,0,0,1-4.91.36,36.44,36.44,0,0,1-5.07-.24,2.57,2.57,0,0,1-1.88-1.12c-.43-.69-.65-2.21-.65-4.57a16.39,16.39,0,0,1,.35-3.82,2.29,2.29,0,0,1,1.61-1.71,19.5,19.5,0,0,1,5-.41q1.22,0,2.73.06c1,0,1.71.1,2.08.15a3.06,3.06,0,0,1,1.84.87,2.44,2.44,0,0,1,.59,1,6.49,6.49,0,0,1,.2,1.64h-1.63a2.89,2.89,0,0,0-.38-1.74,1.46,1.46,0,0,0-.66-.32,9.24,9.24,0,0,0-1.35-.18c-.85-.05-1.9-.08-3.15-.08a33,33,0,0,0-3.57.13,2.68,2.68,0,0,0-1.45.46,1.92,1.92,0,0,0-.45,1.12,17.69,17.69,0,0,0-.13,2.59,16.72,16.72,0,0,0,.22,3.48,1.38,1.38,0,0,0,.43.74,2.08,2.08,0,0,0,.88.33,43,43,0,0,0,5.07.18,22,22,0,0,0,3.19-.17,1.5,1.5,0,0,0,1.19-.68,7,7,0,0,0,.28-2.36h-6.16v-1.38Z" transform="translate(-117 -115)"/><polygon class="cls-2" points="35.6 83.9 35.6 72.08 47.16 72.08 47.16 73.47 37.17 73.47 37.17 77.08 46.74 77.08 46.74 78.46 37.17 78.46 37.17 82.52 47.18 82.52 47.18 83.9 35.6 83.9 35.6 83.9"/><polygon class="cls-2" points="48.3 72.08 50.92 72.08 61.26 82.45 61.62 82.45 61.62 72.08 63.2 72.08 63.2 83.9 60.53 83.9 50.22 73.57 49.88 73.57 49.88 83.9 48.3 83.9 48.3 72.08 48.3 72.08"/><polygon class="cls-2" points="64.09 72.08 77.5 72.08 77.5 73.47 71.6 73.47 71.6 83.9 70.02 83.9 70.02 73.47 64.09 73.47 64.09 72.08 64.09 72.08"/><polygon class="cls-2" points="78.39 83.9 78.39 72.08 89.95 72.08 89.95 73.47 79.97 73.47 79.97 77.08 89.53 77.08 89.53 78.46 79.97 78.46 79.97 82.52 89.97 82.52 89.97 83.9 78.39 83.9 78.39 83.9"/><path class="cls-2" d="M212.52,198.9V187.09h8.15a22.09,22.09,0,0,1,3.81.22,2.94,2.94,0,0,1,2,1.41,4.34,4.34,0,0,1,.5,1.55,19,19,0,0,1,.15,2.72,12.14,12.14,0,0,1-.39,3.44,3.06,3.06,0,0,1-2.58,2.29,22,22,0,0,1-3.38.18Zm1.58-1.38h6.62c1.14,0,1.84,0,2.11,0a5.55,5.55,0,0,0,.91-.15,1.92,1.92,0,0,0,1.37-1.25,9.27,9.27,0,0,0,.41-3.18c0-1.86-.24-3.08-.71-3.67a1.61,1.61,0,0,0-.71-.51,4.84,4.84,0,0,0-1.2-.24q-.45,0-2.25,0H214.1v9.05Z" transform="translate(-117 -115)"/><polygon class="cls-2" points="111.67 83.9 111.67 72.08 123.24 72.08 123.24 73.47 113.25 73.47 113.25 77.08 122.81 77.08 122.81 78.46 113.25 78.46 113.25 82.52 123.25 82.52 123.25 83.9 111.67 83.9 111.67 83.9"/><polygon class="cls-2" points="244.05 72.08 246.18 72.08 251.88 77.76 257.4 72.08 259.59 72.08 252.66 79.07 252.66 83.9 251.09 83.9 251.09 79.07 244.05 72.08 244.05 72.08"/><path class="cls-2" d="M245.33,195h3.49c0,.59.11,1,.35,1.14a1.47,1.47,0,0,0,.67.2c.28,0,1.14,0,2.59.05l2.74,0a2.18,2.18,0,0,0,.72-.14c.27-.11.4-.41.4-.89a.8.8,0,0,0-.28-.71,2.67,2.67,0,0,0-1.15-.19c-.44,0-1.38,0-2.82-.1s-2.42-.11-2.87-.13a8.45,8.45,0,0,1-2-.24,2.26,2.26,0,0,1-1.08-.66,3.86,3.86,0,0,1-.67-2.55,4.19,4.19,0,0,1,.76-2.83,2.88,2.88,0,0,1,1.78-.81,41.42,41.42,0,0,1,4.89-.18,30.23,30.23,0,0,1,3.66.15,3.66,3.66,0,0,1,2.23.9,3.45,3.45,0,0,1,.6,2.29v.55h-3.48a2.15,2.15,0,0,0-.09-.67.55.55,0,0,0-.25-.3,2,2,0,0,0-.82-.17c-.39,0-1.23,0-2.49,0a15.82,15.82,0,0,0-2.8.14.72.72,0,0,0-.5.79.71.71,0,0,0,.5.77,37.84,37.84,0,0,0,3.81.21c1.91.06,3.19.12,3.83.2a4.08,4.08,0,0,1,1.53.45,2.09,2.09,0,0,1,.92,1.07,5.47,5.47,0,0,1,.27,1.95,5.29,5.29,0,0,1-.45,2.48,2.12,2.12,0,0,1-.94.89,4.93,4.93,0,0,1-1.69.4c-.78.07-2.23.11-4.35.11-1.78,0-3.09-.05-3.94-.14a5.17,5.17,0,0,1-1.91-.5,2.06,2.06,0,0,1-.92-1,5.36,5.36,0,0,1-.25-1.9V195Z" transform="translate(-117 -115)"/><polygon class="cls-2" points="144.03 72.08 157.1 72.08 157.1 74.87 147.58 74.87 147.58 76.57 156.63 76.57 156.63 79.15 147.58 79.15 147.58 81.06 157.18 81.06 157.18 83.9 144.03 83.9 144.03 72.08 144.03 72.08"/><path class="cls-2" d="M282.48,192.2h8.22c0,.19,0,.3,0,.32,0,1.67,0,2.93-.13,3.77a2.61,2.61,0,0,1-2.31,2.47,14.64,14.64,0,0,1-2.08.25c-.78.05-2,.07-3.57.07a38,38,0,0,1-4.31-.17,4.75,4.75,0,0,1-2-.65,2.29,2.29,0,0,1-.77-.87,4.23,4.23,0,0,1-.37-1.39,30.08,30.08,0,0,1-.11-3.19,24.13,24.13,0,0,1,.09-2.43,5.67,5.67,0,0,1,.34-1.47,2.59,2.59,0,0,1,2.16-1.67,36.08,36.08,0,0,1,5.58-.31c1.49,0,2.66,0,3.53.11a10.2,10.2,0,0,1,2.13.37,2.23,2.23,0,0,1,1.64,1.83,9.52,9.52,0,0,1,.15,1.92H287.1a2.79,2.79,0,0,0-.07-.67.53.53,0,0,0-.21-.29,2.79,2.79,0,0,0-1.26-.27c-.61,0-1.48-.05-2.63-.05s-2.13,0-2.67.09a2.23,2.23,0,0,0-1.09.32,1.27,1.27,0,0,0-.4.79,11.48,11.48,0,0,0-.1,1.87,13.9,13.9,0,0,0,.1,2.08,1.33,1.33,0,0,0,.4.83,1.39,1.39,0,0,0,.76.28c.32,0,1.31.06,3,.08s2.63,0,3,0a2.91,2.91,0,0,0,.84-.16.7.7,0,0,0,.37-.37,2.07,2.07,0,0,0,.11-.76v-.33h-4.73V192.2Z" transform="translate(-117 -115)"/><path class="cls-2" d="M292.06,187.09h3.6v5.43a17,17,0,0,0,.13,2.36,1.15,1.15,0,0,0,.89.92,14.15,14.15,0,0,0,3.07.21,18.94,18.94,0,0,0,2.59-.11,1.68,1.68,0,0,0,1-.43,1.27,1.27,0,0,0,.28-.54,6.05,6.05,0,0,0,.13-1.1c0-.54,0-1,0-1.31v-5.43h3.6v5.43c0,1.88-.1,3.12-.18,3.7a2.86,2.86,0,0,1-1.42,2.18,4.89,4.89,0,0,1-1.93.54c-.83.09-2.2.14-4.1.14-1.42,0-2.52,0-3.3-.08a12.81,12.81,0,0,1-2-.28,2.68,2.68,0,0,1-2.22-2.28,11,11,0,0,1-.15-1.28c0-.38,0-1.26-.05-2.64v-5.43Z" transform="translate(-117 -115)"/><path class="cls-2" d="M309,198.9V187.09h8.69c2,0,3.26,0,3.67.06a2.68,2.68,0,0,1,1.16.4,2.12,2.12,0,0,1,.93,1.12,7.63,7.63,0,0,1,.25,2.25,8.52,8.52,0,0,1-.16,1.9,1.83,1.83,0,0,1-.6,1,3,3,0,0,1-1.43.54,2.3,2.3,0,0,1,1.62.65,1.68,1.68,0,0,1,.37.81,16.93,16.93,0,0,1,.07,2v1.1h-3.54v-.63a9.13,9.13,0,0,0-.07-1.4,1.3,1.3,0,0,0-.28-.65,1,1,0,0,0-.55-.26,11.55,11.55,0,0,0-1.46-.05h-5.08v3Zm3.59-6h5.07c.87,0,1.4,0,1.57,0a.88.88,0,0,0,.43-.14.72.72,0,0,0,.33-.43,3.19,3.19,0,0,0,.09-.88,2.68,2.68,0,0,0-.1-.86.78.78,0,0,0-.38-.42,1.24,1.24,0,0,0-.45-.1l-1.5,0h-5.06V193Z" transform="translate(-117 -115)"/><path class="cls-2" d="M332.87,186.93a50.31,50.31,0,0,1,5.26.18,2.72,2.72,0,0,1,2.53,2,24.17,24.17,0,0,1,0,7.84,2.7,2.7,0,0,1-2.53,2,49,49,0,0,1-5.22.19,50,50,0,0,1-5.3-.19,2.7,2.7,0,0,1-2.53-2,16.62,16.62,0,0,1-.32-4,15.77,15.77,0,0,1,.32-3.85,2.72,2.72,0,0,1,2.53-2,50.17,50.17,0,0,1,5.26-.18Zm0,3.06a21.4,21.4,0,0,0-3.45.15,1.16,1.16,0,0,0-.87.77,8.79,8.79,0,0,0-.21,2.4,7.32,7.32,0,0,0,.12,1.57,1.34,1.34,0,0,0,1.3,1,30.14,30.14,0,0,0,3.13.1c1.44,0,2.41,0,2.89-.07a2.2,2.2,0,0,0,1.06-.35,1.21,1.21,0,0,0,.42-.72,6.94,6.94,0,0,0,.12-1.54,14.05,14.05,0,0,0-.09-1.88,2.05,2.05,0,0,0-.31-.9,1.37,1.37,0,0,0-.94-.47c-.44-.06-1.5-.09-3.17-.09Z" transform="translate(-117 -115)"/><path class="cls-2" d="M342,195h3.49c0,.59.11,1,.35,1.14a1.43,1.43,0,0,0,.67.2c.27,0,1.14,0,2.59.05l2.73,0a2.19,2.19,0,0,0,.73-.14c.26-.11.4-.41.4-.89a.8.8,0,0,0-.28-.71,2.67,2.67,0,0,0-1.15-.19c-.44,0-1.38,0-2.82-.1s-2.42-.11-2.87-.13a8.38,8.38,0,0,1-2-.24,2.29,2.29,0,0,1-1.09-.66,3.92,3.92,0,0,1-.66-2.55,4.13,4.13,0,0,1,.76-2.83,2.88,2.88,0,0,1,1.78-.81,41.3,41.3,0,0,1,4.89-.18,29.92,29.92,0,0,1,3.65.15,3.66,3.66,0,0,1,2.24.9,3.45,3.45,0,0,1,.6,2.29v.55h-3.49a2.24,2.24,0,0,0-.08-.67.55.55,0,0,0-.25-.3,2,2,0,0,0-.83-.17c-.39,0-1.22,0-2.49,0a15.67,15.67,0,0,0-2.79.14.72.72,0,0,0-.5.79.71.71,0,0,0,.5.77,37.84,37.84,0,0,0,3.81.21c1.91.06,3.18.12,3.83.2a4.08,4.08,0,0,1,1.53.45,2.13,2.13,0,0,1,.92,1.07,5.47,5.47,0,0,1,.27,1.95,5.29,5.29,0,0,1-.45,2.48,2.12,2.12,0,0,1-.94.89,5,5,0,0,1-1.69.4c-.78.07-2.23.11-4.35.11-1.78,0-3.09-.05-3.94-.14a5.11,5.11,0,0,1-1.91-.5,2.06,2.06,0,0,1-.92-1,5.32,5.32,0,0,1-.26-1.9V195Z" transform="translate(-117 -115)"/><polygon class="cls-2" points="264.61 72.08 277.08 72.08 277.08 74.87 268.21 74.87 268.21 77.1 276.66 77.1 276.66 79.81 268.21 79.81 268.21 83.9 264.61 83.9 264.61 72.08 264.61 72.08"/><polygon class="cls-2" points="277.92 72.08 281.69 72.08 281.69 83.9 277.92 83.9 277.92 72.08 277.92 72.08"/><path class="cls-2" d="M413.16,198.9l-1-2h-7.81l-1,2h-4.11l6.26-11.81h5.59l6.17,11.81Zm-2.27-4.59-2.28-4.48h-.71l-2.28,4.48Z" transform="translate(-117 -115)"/><polygon class="cls-2" points="300.78 72.08 307.09 72.08 313.27 80.91 313.65 80.91 313.56 72.08 317.22 72.08 317.22 83.9 310.96 83.9 304.75 75.08 304.36 75.08 304.44 83.9 300.78 83.9 300.78 72.08 300.78 72.08"/><polygon class="cls-2" points="318.58 72.08 332.75 72.08 332.75 74.8 324.1 81.06 333 80.95 333 83.9 318.39 83.9 318.39 81.14 326.93 74.93 318.58 75.04 318.58 72.08 318.58 72.08"/><path class="cls-2" d="M464,198.9l-1-2h-7.81l-1,2h-4.11l6.27-11.81h5.58l6.18,11.81Zm-2.27-4.59-2.28-4.48h-.71l-2.28,4.48Z" transform="translate(-117 -115)"/><path class="cls-2" d="M468.21,195h3.48c0,.59.11,1,.36,1.14a1.4,1.4,0,0,0,.67.2c.27,0,1.13,0,2.58.05l2.74,0a2.08,2.08,0,0,0,.72-.14c.27-.11.4-.41.4-.89a.78.78,0,0,0-.28-.71,2.65,2.65,0,0,0-1.14-.19c-.45,0-1.39,0-2.82-.1s-2.43-.11-2.87-.13a8.31,8.31,0,0,1-2-.24,2.24,2.24,0,0,1-1.09-.66,3.92,3.92,0,0,1-.66-2.55,4.13,4.13,0,0,1,.76-2.83,2.86,2.86,0,0,1,1.78-.81,41.21,41.21,0,0,1,4.88-.18,30,30,0,0,1,3.66.15,3.63,3.63,0,0,1,2.23.9,3.4,3.4,0,0,1,.61,2.29v.55h-3.49a2.64,2.64,0,0,0-.08-.67.57.57,0,0,0-.26-.3,1.94,1.94,0,0,0-.82-.17c-.39,0-1.22,0-2.49,0a15.59,15.59,0,0,0-2.79.14.72.72,0,0,0-.51.79.7.7,0,0,0,.51.77,37.33,37.33,0,0,0,3.81.21c1.9.06,3.18.12,3.82.2a4.08,4.08,0,0,1,1.54.45,2.07,2.07,0,0,1,.91,1.07,5.47,5.47,0,0,1,.27,1.95,5.29,5.29,0,0,1-.45,2.48,2,2,0,0,1-.94.89,4.93,4.93,0,0,1-1.69.4c-.78.07-2.23.11-4.35.11-1.77,0-3.09-.05-3.93-.14a5.17,5.17,0,0,1-1.92-.5,2.06,2.06,0,0,1-.92-1,5.36,5.36,0,0,1-.25-1.9V195Z" transform="translate(-117 -115)"/><polygon class="cls-2" points="358.2 9.65 365.67 0 309.04 0 309.04 54.51 321.88 54.51 321.88 34.67 321.88 31.7 324.85 31.7 355.26 31.7 362.74 22.05 324.85 22.05 321.88 22.05 321.88 19.08 321.88 12.62 321.88 9.65 324.85 9.65 358.2 9.65 358.2 9.65"/><polygon class="cls-2" points="270.35 35.48 301.86 0 285.91 0 265.68 23.52 263.51 26.05 261.25 23.6 239.5 0 223.56 0 255.97 35.35 256.76 36.21 256.76 37.36 256.76 54.51 269.6 54.51 269.6 37.44 269.6 36.33 270.35 35.48 270.35 35.48"/><polygon class="cls-2" points="210.31 54.51 217.78 44.85 176.96 44.85 173.99 44.85 173.99 41.88 173.99 34.67 173.99 31.7 176.96 31.7 207.37 31.7 214.84 22.05 176.96 22.05 173.99 22.05 173.99 19.08 173.99 12.62 173.99 9.65 176.96 9.65 210.31 9.65 217.78 0 161.15 0 161.15 54.51 210.31 54.51 210.31 54.51"/><path class="cls-2" d="M256.55,124.65,264,115H215.23a32.33,32.33,0,0,0-8.61,1.06,22.8,22.8,0,0,0-6.82,3.11,14.24,14.24,0,0,0-4.6,4.85,13.31,13.31,0,0,0,0,12.16h0A14.43,14.43,0,0,0,199.8,141a22.82,22.82,0,0,0,6.82,3.12,32.76,32.76,0,0,0,8.61,1.05H246a21.19,21.19,0,0,1,3.3.26,15.58,15.58,0,0,1,3,.77l0,0c3.28,1.28,4.92,3.34,4.92,6.2a5.79,5.79,0,0,1-1.49,3.9h0a9.15,9.15,0,0,1-3.36,2.27h0a14.41,14.41,0,0,1-3.07.93h0a17.41,17.41,0,0,1-3.33.31H204.26l-7.47,9.66H246a33.17,33.17,0,0,0,9.27-1.2,22.87,22.87,0,0,0,7.24-3.51h0a15.87,15.87,0,0,0,4.89-5.38h0a14.12,14.12,0,0,0,1.57-6.72,14.69,14.69,0,0,0-1.57-6.86,16.49,16.49,0,0,0-4.86-5.52h0a23.64,23.64,0,0,0-7.33-3.55,33,33,0,0,0-9.26-1.22H215.23c-4.27,0-6.4-1.82-6.4-5.44a5,5,0,0,1,2.1-4.26,7.18,7.18,0,0,1,4.3-1.19Z" transform="translate(-117 -115)"/><path class="cls-1" d="M128.57,136.29a4.78,4.78,0,1,0-3.4-1.4h0a4.82,4.82,0,0,0,3.4,1.4Z" transform="translate(-117 -115)"/><path class="cls-1" d="M175.84,145.94a4.8,4.8,0,1,0-3.4-1.41h0a4.79,4.79,0,0,0,3.4,1.41Z" transform="translate(-117 -115)"/><path class="cls-1" d="M149.47,168.81a4.8,4.8,0,1,0,0-9.59,4.8,4.8,0,0,0-4.8,4.79,4.79,4.79,0,0,0,1.41,3.4h0a4.82,4.82,0,0,0,3.4,1.4Z" transform="translate(-117 -115)"/></svg>